<?xml version="1.0"?>
<svg xmlns="http://www.w3.org/2000/svg" viewBox="0 0 64 64" width="512" height="512"><path d="m56 8.44519h4v20.55481h-4z" fill="#78afff"/><path d="m46.50714 48c0 .23694-.01636.47-.03613.702l1.52899 1.3179a9.76636 9.76636 0 0 1 -.7074 2.10388l-2.02093.18494a8.34711 8.34711 0 0 1 -.83863 1.13372l.44288 1.93366a3.284 3.284 0 0 1 -1.83173 1.311l-1.73712-1.007a8.583 8.583 0 0 1 -1.36878.42755l-.80645 1.82752h-2.26374l-.80652-1.82752a8.59213 8.59213 0 0 1 -1.36877-.42765l-1.73712 1.007a10.21485 10.21485 0 0 1 -1.83179-1.311l.44293-1.93366a8.35322 8.35322 0 0 1 -.83856-1.13373l-2.02087-.18501a9.77019 9.77019 0 0 1 -.7074-2.10382l1.529-1.31778c-.01977-.232-.03613-.465-.03613-.702h-5.49287v-8h-6v-23h-16v45h48v-14z" fill="#78a7f9"/><path d="m39.1039 19h-2.1039v-13a1.027 1.027 0 0 1 1.052-1h16.948v2h-15.8961z" fill="#6c747f"/><path d="m46.471 27.29791 1.529-1.31775a9.764 9.764 0 0 0 -.70734-2.10388l-2.02093-.18493a8.36008 8.36008 0 0 0 -.83856-1.13373l.44293-1.93362a10.217 10.217 0 0 0 -1.83179-1.311l-1.73712 1.007a8.57156 8.57156 0 0 0 -1.36877-.42755l-.80652-1.82764h-2.26374l-.80645 1.82757a8.57411 8.57411 0 0 0 -1.36871.42762l-1.73718-1.00708a10.21559 10.21559 0 0 0 -1.83173 1.311l.44291 1.93358a8.35215 8.35215 0 0 0 -.83863 1.13372l-2.02087.18494a9.76757 9.76757 0 0 0 -.7075 2.10384l1.529 1.31787v1.40413l-1.529 1.31778a9.77019 9.77019 0 0 0 .7074 2.10382l2.02087.18493a8.35322 8.35322 0 0 0 .83856 1.13373l-.44283 1.93366a10.21227 10.21227 0 0 0 1.83173 1.311l1.73712-1.007a8.59437 8.59437 0 0 0 1.36877.42761l.80652 1.82752h2.26374l.80651-1.82752a8.58423 8.58423 0 0 0 1.36872-.42755l1.73712 1.007a3.284 3.284 0 0 0 1.83173-1.311l-.44296-1.93354a8.34711 8.34711 0 0 0 .83863-1.13372l2.02093-.18494a9.76636 9.76636 0 0 0 .70744-2.10388l-1.529-1.3179zm-8.471 4.70209a4 4 0 1 1 4-4 4 4 0 0 1 -4 4z" fill="#ffd700"/><path d="m10 11a6 6 0 0 1 6 6 0 0 0 0 1 0 0h-12a0 0 0 0 1 0 0 6 6 0 0 1 6-6z" fill="#f4393d"/><path d="m55 28h6v34h-6z" fill="#545fc6"/><circle cx="58" cy="6" fill="#515bbc" r="4"/><circle cx="58" cy="6" fill="#5358a1" r=".5"/><path d="m59.43 33.845-4.43 2.953v2.616l4.519 4.519-4.519 3.765v2.604l4.438 3.698-4.438 3.698v1.302l.64.768 5.36-4.466v-2.604l-4.438-3.698 4.438-3.698v-2.716l-4.43-4.431 4.43-2.953v-2.616l-4.586-4.586h-1.414v1.414z" fill="#a2a5aa"/><path d="m22 40h2v8h-2z" fill="#a4c9ff"/><path d="m16 17h2v23h-2z" fill="#a4c9ff"/><g fill="#004daa"><path d="m9 22h2v2h-2z"/><path d="m5 22h2v2h-2z"/><path d="m13 22h2v2h-2z"/><path d="m5 26h2v2h-2z"/><path d="m9 26h2v2h-2z"/><path d="m13 26h2v2h-2z"/><path d="m5 30h2v2h-2z"/><path d="m9 30h2v2h-2z"/><path d="m13 30h2v2h-2z"/><path d="m5 34h2v2h-2z"/><path d="m9 34h2v2h-2z"/><path d="m13 34h2v2h-2z"/><path d="m5 38h2v2h-2z"/><path d="m9 38h2v2h-2z"/><path d="m13 38h2v2h-2z"/><path d="m5 42h2v2h-2z"/><path d="m9 42h2v2h-2z"/><path d="m13 42h2v2h-2z"/><path d="m5 46h2v2h-2z"/><path d="m9 46h2v2h-2z"/><path d="m13 46h2v2h-2z"/><path d="m5 50h2v2h-2z"/><path d="m9 50h2v2h-2z"/><path d="m13 50h2v2h-2z"/></g><path d="m10 11a6.01184 6.01184 0 0 0 -1 .09 5.99663 5.99663 0 0 1 5 5.91h2a6 6 0 0 0 -6-6z" fill="#f46c73"/><circle cx="58" cy="6" fill="#848e99" r="2"/><path d="m38 22a6 6 0 1 0 6 6 6 6 0 0 0 -6-6zm0 10a4 4 0 1 1 4-4 4 4 0 0 1 -4 4z" fill="#ffbc00"/></svg>
