<svg id="Capa_1" enable-background="new 0 0 503.364 503.364" height="512" viewBox="0 0 503.364 503.364" width="512" xmlns="http://www.w3.org/2000/svg"><g><g><path d="m243.674 441.053h-104.943c-4.143 0-7.5-3.357-7.5-7.5s3.357-7.5 7.5-7.5h104.943c4.143 0 7.5 3.357 7.5 7.5s-3.357 7.5-7.5 7.5z" fill="#dff6fd"/></g><g><path d="m366.633 441.053h-105.943c-4.143 0-7.5-3.357-7.5-7.5s3.357-7.5 7.5-7.5h105.943c4.143 0 7.5 3.357 7.5 7.5s-3.357 7.5-7.5 7.5z" fill="#dff6fd"/></g></g><path d="m417.508 268.033-30.657 17.854-30.051 15.498-21.869-40.968 31.905-14.661 28.656-15.855 22.016-7.068 18.712 37.584z" fill="#c9bfc8"/><path d="m107.871 229.901 28.657 15.855 29.761 15.242-23.908 40.387-25.868-15.498-30.657-17.854-17.054-8.428 20.194-40.155z" fill="#c9bfc8"/><path d="m358.482 91.432c-4.143 0-7.5 3.357-7.5 7.5v227.581.241c0 48.445-34.485 89.478-82.074 97.792h-34.516c-47.556-8.341-82.009-49.369-82.009-97.792v-227.822c0-4.143-3.357-7.5-7.5-7.5s-7.5 3.357-7.5 7.5v227.822c0 27.17 9.699 53.501 27.312 74.143 17.412 20.406 41.493 34.096 67.807 38.545.413.069.831.104 1.25.104h35.833c.007 0 .014.001.022.001.005 0 .011-.001.016-.001.384 0 .759-.038 1.128-.094.039-.006.076-.003.115-.01.067-.011.134-.027.201-.039.032-.006.065-.012.097-.019 26.197-4.502 50.163-18.159 67.509-38.488 17.612-20.642 27.312-46.973 27.312-74.143v-.241-227.58c-.003-4.143-3.361-7.5-7.503-7.5z" fill="#c8effe"/><g><path d="m480.716 503.364c-2.59 0-5.109-1.343-6.499-3.746l-27.236-47.099c-.028-.05-.057-.099-.084-.148l-33.74-61.519c-1.991-3.632-.662-8.19 2.97-10.183 3.634-1.989 8.19-.661 10.183 2.97l33.698 61.442 27.194 47.026c2.074 3.586.848 8.174-2.737 10.247-1.184.684-2.475 1.01-3.749 1.01z" fill="#baafb9"/></g><g><path d="m22.648 503.364c-1.274 0-2.565-.325-3.748-1.009-3.585-2.073-4.812-6.661-2.737-10.247l27.171-46.986 24.772-46.461c1.948-3.654 6.489-5.04 10.146-3.09 3.655 1.949 5.038 6.492 3.09 10.146l-24.833 46.575c-.041.076-.082.151-.126.227l-27.236 47.099c-1.39 2.403-3.91 3.746-6.499 3.746z" fill="#baafb9"/></g><path d="m268.928 65.65h-35.492v-53.703c0-6.598 5.348-11.947 11.946-11.947h11.599c6.598 0 11.947 5.349 11.947 11.947z" fill="#e5e1e5"/><path d="m241.759 24.392c0-6.598 5.349-11.947 11.947-11.947h11.599c1.264 0 2.48.199 3.623.563v-1.062c0-6.597-5.349-11.946-11.946-11.946h-11.6c-6.598 0-11.946 5.349-11.946 11.947v53.703h8.323z" fill="#d7d0d6"/><path d="m251.682 164.925-68.731 126.359c-.876 1.611-2.024 3.06-3.393 4.281l-46.185 41.22-60.305 109.258c-3.301 5.981-10.649 8.415-16.868 5.588l-10.444-4.747c-6.908-3.14-9.705-11.48-6.086-18.15l161.643-297.936 27.304-57.044 56.078 25.863z" fill="#e5e1e5"/><path d="m302.051 130.798 161.643 297.936c3.619 6.67.822 15.01-6.086 18.15l-10.444 4.747c-6.219 2.827-13.567.393-16.868-5.588l-60.305-109.258-46.185-41.22c-1.369-1.221-2.516-2.67-3.393-4.281l-68.731-126.359-29.377-60.637 57.26-30.533z" fill="#efedef"/><path d="m302.051 130.798-22.487-57.044-57.26 30.533 29.377 60.637 11.494 21.132c21.259-3.229 39.653-15.278 51.342-32.28z" fill="#e5e1e5"/><path d="m284.695 99.617-56.078-25.863-27.304 57.044-12.467 22.979c11.69 17.001 30.083 29.05 51.342 32.28l11.494-21.132z" fill="#d7d0d6"/><path d="m279.059 63.919v-12.542c0-4.268-3.46-7.727-7.727-7.727h-40.3c-4.268 0-7.727 3.459-7.727 7.727v13.134c-15.501 9.542-25.839 26.66-25.839 46.198 0 29.942 24.273 54.216 54.216 54.216s54.216-24.273 54.216-54.216c0-19.953-10.787-37.377-26.839-46.79z" fill="#baafb9"/><path d="m215.916 116.538c0-16.747 7.595-31.715 19.527-41.659 3.933-3.278 6.312-8.051 6.312-13.17v-18.059h-10.723c-4.268 0-7.727 3.46-7.727 7.727v13.134c-15.501 9.542-25.839 26.66-25.839 46.198 0 27.612 20.647 50.403 47.341 53.784-17.18-9.095-28.891-27.162-28.891-47.955z" fill="#aa9ea9"/><circle cx="251.682" cy="110.708" fill="#aa9ea9" r="20.09"/><path d="m105.639 229.303-21.552 37.328c-3.649 6.321-11.731 8.486-18.052 4.837l-5.646-3.26c-6.321-3.649-8.486-11.731-4.837-18.052l21.552-37.328c3.649-6.321 11.731-8.486 18.052-4.837l5.646 3.26c6.321 3.649 8.486 11.731 4.837 18.052z" fill="#e5e1e5"/><path d="m397.724 229.303 21.552 37.328c3.649 6.321 11.731 8.486 18.052 4.837l5.646-3.26c6.321-3.649 8.486-11.731 4.837-18.052l-21.552-37.328c-3.649-6.321-11.731-8.486-18.052-4.837l-5.646 3.26c-6.32 3.649-8.486 11.731-4.837 18.052z" fill="#e5e1e5"/><path d="m155.26 117.932h-20.756c-4.384 0-7.937-3.554-7.937-7.937v-20.756c0-4.384 3.554-7.937 7.937-7.937h20.756c4.384 0 7.937 3.554 7.937 7.937v20.756c0 4.383-3.554 7.937-7.937 7.937z" fill="#01c0fa"/><path d="m368.859 117.932h-20.756c-4.384 0-7.937-3.554-7.937-7.937v-20.756c0-4.384 3.554-7.937 7.937-7.937h20.756c4.384 0 7.937 3.554 7.937 7.937v20.756c0 4.383-3.553 7.937-7.937 7.937z" fill="#01c0fa"/><g fill="#ee6161"><circle cx="251.682" cy="433.553" r="18.008"/><path d="m139.846 448.039h-13.202c-4.355 0-7.885-3.53-7.885-7.885v-13.202c0-4.355 3.53-7.885 7.885-7.885h13.202c4.355 0 7.885 3.53 7.885 7.885v13.202c0 4.355-3.53 7.885-7.885 7.885z"/><path d="m363.517 448.039h13.202c4.355 0 7.885-3.53 7.885-7.885v-13.202c0-4.355-3.53-7.885-7.885-7.885h-13.202c-4.355 0-7.885 3.53-7.885 7.885v13.202c.001 4.355 3.531 7.885 7.885 7.885z"/></g></svg>