<svg id="flat" height="512" viewBox="0 0 512 512" width="512" xmlns="http://www.w3.org/2000/svg"><path d="m488 80h-288v-40a16 16 0 0 1 16-16h256a16 16 0 0 1 16 16z" fill="#548aff"/><path d="m488 80v272a16 16 0 0 1 -16 16h-256a16 16 0 0 1 -16-16v-272z" fill="#e0edff"/><circle cx="224" cy="48" fill="#f5714f" r="8"/><circle cx="248" cy="48" fill="#ffc431" r="8"/><circle cx="272" cy="48" fill="#08d175" r="8"/><path d="m120 288v-16a16 16 0 0 0 16-16v-40h-56v72z" fill="#ffceb6"/><path d="m80 256-16-24v-16a32 32 0 0 1 32-32h40a16 16 0 0 1 16 16 16 16 0 0 1 -16 16h-16l-16 40z" fill="#c47220"/><path d="m318.50977 220.47-6.50977 19.53v32l-51.21 68.28a69.29155 69.29155 0 0 1 -81.18018 22.76l-4.18994-1.68-23.41988-9.36v72l-8 24h-112l-8-24v-96a40.0017 40.0017 0 0 1 40-40h88.45a32.06589 32.06589 0 0 1 14.31 3.38l31.83008 15.92 9.40992 4.7 56-48v-16a15.97886 15.97886 0 0 1 16-16l26.71973-20.04a7.617 7.617 0 0 1 11.79 8.51z" fill="#ffceb6"/><path d="m32 448h112v48h-112z" fill="#718799"/><path d="m198.59009 307.3-23.17017 54.06-23.41992-9.36v72l-8 24h-112l-8-24v-96a40.0017 40.0017 0 0 1 40-40h88.45a32.06589 32.06589 0 0 1 14.31 3.38z" fill="#548aff"/><path d="m288 184h-48a8.00008 8.00008 0 0 1 -8-8v-48a8.00008 8.00008 0 0 1 8-8h16v16h-8v32h32v-40h16v48a8.00008 8.00008 0 0 1 -8 8z" fill="#c5dafa"/><path d="m246.059 128h67.882v16h-67.882z" fill="#f5714f" transform="matrix(.707 -.707 .707 .707 -14.152 237.836)"/><g fill="#c5dafa"><path d="m320 128h32v16h-32z"/><path d="m368 128h88v16h-88z"/><path d="m320 160h64v16h-64z"/><path d="m400 160h16v16h-16z"/><path d="m408 208h48v16h-48z"/><path d="m344 208h48v16h-48z"/><path d="m336 240h80v16h-80z"/><path d="m432 240h16v16h-16z"/><path d="m408 288h48v16h-48z"/><path d="m344 288h48v16h-48z"/><path d="m336 320h80v16h-80z"/><path d="m432 320h16v16h-16z"/></g></svg>