<svg height="512" viewBox="0 0 512 512" width="512" xmlns="http://www.w3.org/2000/svg"><g><g><path d="m416 184v208l-160 80v-208z" fill="#96c8ef"/><path d="m256 264v208l-160-80v-208z" fill="#3d9ae2"/><path d="m416 184-160 80-160-80 160-80z" fill="#d1e7f8"/><g fill="#d8d7da"><path d="m285.895 328.164 14.378 7.02"/><path d="m321.839 345.714 14.378 7.021"/><path d="m357.783 363.265 14.378 7.021"/><path d="m393.727 380.816 102.273 51.184"/><path d="m227.105 328.164-14.378 7.02"/><path d="m191.161 345.714-14.378 7.021"/><path d="m155.217 363.265-14.378 7.021"/><path d="m119.273 380.816-103.273 51.184"/></g></g><g><path d="m248 192a8 8 0 0 0 16 0v-16a8 8 0 0 0 -16 0z"/><path d="m256 208a8 8 0 0 0 -8 8v16a8 8 0 0 0 16 0v-16a8 8 0 0 0 -8-8z"/><path d="m303.782 328-14.382-7.024a8 8 0 1 0 -7.019 14.377l14.377 7.019a8 8 0 1 0 7.024-14.372z"/><path d="m339.727 345.545-14.378-7.02a8 8 0 1 0 -7.02 14.379l14.378 7.02a8 8 0 0 0 7.02-14.379z"/><path d="m375.671 363.1-14.378-7.02a8 8 0 0 0 -7.02 14.379l14.378 7.02a8 8 0 1 0 7.02-14.379z"/><path d="m499.58 424.85-75.58-37.83v-203.02a8.011 8.011 0 0 0 -4.42-7.16l-155.58-77.78v-51.06a8 8 0 0 0 -16 0v51.06l-155.58 77.78a8.011 8.011 0 0 0 -4.42 7.16v203.39l-75.55 37.44a8 8 0 0 0 7.1 14.34l76.79-38.06 156.08 78.05a8.049 8.049 0 0 0 7.16 0l156.46-78.23 76.38 38.22a7.9 7.9 0 0 0 3.57.85 8 8 0 0 0 3.59-15.15zm-251.58 34.21-133.7-66.85 8.53-4.23a8 8 0 1 0 -7.11-14.33l-11.72 5.81v-182.52l144 72zm8-204-142.11-71.06 134.11-67.06v35.06a8 8 0 0 0 16 0v-35.06l134.11 67.06zm152 123.95-10.69-5.35a8 8 0 1 0 -7.16 14.31l8.01 4.01-134.16 67.08v-190.12l144-72z"/><path d="m212.733 343.186a7.964 7.964 0 0 0 3.5-.814l14.377-7.019a8 8 0 1 0 -7.019-14.377l-14.373 7.024a8 8 0 0 0 3.515 15.191z"/><path d="m176.789 360.736a7.976 7.976 0 0 0 3.5-.812l14.378-7.02a8 8 0 1 0 -7.02-14.379l-14.378 7.02a8 8 0 0 0 3.516 15.191z"/><path d="m140.845 378.287a7.993 7.993 0 0 0 3.5-.812l14.378-7.02a8 8 0 0 0 -7.02-14.379l-14.378 7.02a8 8 0 0 0 3.516 15.191z"/></g></g></svg>