<svg id="Layer_1" height="512" viewBox="0 0 512 512" width="512" xmlns="http://www.w3.org/2000/svg" xmlns:xlink="http://www.w3.org/1999/xlink" data-name="Layer 1"><linearGradient id="linear-gradient" gradientUnits="userSpaceOnUse" x1="256" x2="256" y1="468" y2="103.555"><stop offset=".322" stop-color="#a163f5"/><stop offset=".466" stop-color="#b074ee"/><stop offset=".752" stop-color="#d8a1dd"/><stop offset=".898" stop-color="#efbad3"/></linearGradient><linearGradient id="linear-gradient-2" x1="34" x2="34" xlink:href="#linear-gradient" y1="468" y2="103.555"/><linearGradient id="linear-gradient-4" x1="134" x2="134" xlink:href="#linear-gradient" y1="468" y2="103.555"/><linearGradient id="linear-gradient-5" x1="377.5" x2="377.5" xlink:href="#linear-gradient" y1="468" y2="103.555"/><path d="m495 234h-17.489l-36.311-147.836a5.655 5.655 0 0 0 -5.824-4.164h-54.132a21 21 0 1 0 0 42h25.768l27.079 110h-356.182l27.079-110h25.768a21 21 0 1 0 0-42h-54.132a5.655 5.655 0 0 0 -5.824 4.164l-36.311 147.836h-17.489c-3.314 0-6 3.163-6 6.476v183.865a5.719 5.719 0 0 0 6 5.659h184.688a5.943 5.943 0 0 0 4.857-2.414l36.728-50.586h25.007l28.184 50.007a5.943 5.943 0 0 0 5.229 2.993h193.307a5.719 5.719 0 0 0 6-5.659v-183.865c0-3.313-2.686-6.476-6-6.476zm-77.452-117.711a5.757 5.757 0 0 0 -5.828-4.289h-30.476a9 9 0 1 1 0-18h49.424l34.488 140h-18.71zm-336.216-22.289h49.424a9 9 0 1 1 0 18h-30.476a5.757 5.757 0 0 0 -5.828 4.289l-28.898 117.711h-18.71zm407.668 324h-183.8l-28.185-50.007a5.941 5.941 0 0 0 -5.227-2.993h-31.576a5.943 5.943 0 0 0 -4.857 2.414l-36.728 50.586h-175.627v-172h466z" fill="url(#linear-gradient)"/><path d="m34 274.453a6 6 0 0 0 6-6v-6.2a6 6 0 0 0 -12 0v6.2a6 6 0 0 0 6 6z" fill="url(#linear-gradient-2)"/><path d="m34 393.706a6 6 0 0 0 6-6v-100.527a6 6 0 0 0 -12 0v100.527a6 6 0 0 0 6 6z" fill="url(#linear-gradient-2)"/><path d="m57.116 393h120.884a6.142 6.142 0 0 0 4.623-2.315l33.2-40.441a6.018 6.018 0 0 0 1.177-3.894v-68.25c0-3.314-2.292-6.1-5.6-6.1h-154.284a6.182 6.182 0 0 0 -6.116 6.1v108.621a6.344 6.344 0 0 0 6.116 6.279zm5.884-109h142v60.19l-29.822 36.81h-112.178z" fill="url(#linear-gradient-4)"/><path d="m325.25 390.52a5.915 5.915 0 0 0 4.637 2.48h125a6.344 6.344 0 0 0 6.113-6.279v-108.621a6.182 6.182 0 0 0 -6.116-6.1h-155.356c-3.314 0-5.528 2.782-5.528 6.1v69.185a5.8 5.8 0 0 0 1.009 3.66zm-19.25-106.52h143v97h-116.16l-26.84-35.761z" fill="url(#linear-gradient-5)"/></svg>