<svg height="601pt" viewBox="-19 -52 601.33165 601" width="601pt" xmlns="http://www.w3.org/2000/svg"><path d="m95.785156 333.160156c-22.734375-.03125-41.15625-18.453125-41.183594-41.183594v-272.828124c0-1.207032.0625-2.398438.164063-3.582032-21.265625 1.875-37.582031 19.675782-37.605469 41.023438v272.824218c.027344 22.734376 18.453125 41.15625 41.183594 41.1875h356.46875l-49.921875-37.441406zm0 0" fill="#d4e1f4"/><path d="m441.792969 56.597656v154.96875h-17.46875v-94.625h-406.851563v212.484375c.023438 22.738281 18.445313 41.164063 41.183594 41.183594h324.480469c4.476562.011719 8.929687-.714844 13.167969-2.144531l13.089843 11.21875v2.195312c-8.144531 4.097656-17.140625 6.21875-26.257812 6.203125h-324.480469c-32.378906-.03125-58.6210938-26.273437-58.65625-58.65625v-272.828125c.0390625-32.378906 26.277344-58.617187 58.65625-58.65625h324.480469c32.382812.046875 58.613281 26.28125 58.65625 58.65625zm-17.46875 42.871094v-42.871094c-.03125-22.730468-18.453125-41.148437-41.1875-41.183594h-324.480469c-22.730469.03125-41.15625 18.453126-41.183594 41.183594v42.871094zm0 0" fill="#0635c9"/><g fill="#1ae5be"><path d="m324.695312 307.113281 71.609376 61.351563 13.089843 11.21875v107.527344c-.003906 3.027343 1.5625 5.839843 4.132813 7.433593 2.574218 1.589844 5.792968 1.734375 8.5.378907l49.144531-24.550782c2.964844-1.480468 4.832031-4.507812 4.832031-7.824218v-82.964844l84.703125-72.570313c1.933594-1.664062 3.046875-4.085937 3.042969-6.640625v-80.171875c0-4.824219-3.910156-8.734375-8.738281-8.734375h-224.640625c-4.820313 0-8.734375 3.910156-8.734375 8.734375v80.171875c.003906 2.554688 1.121093 4.976563 3.058593 6.640625zm14.410157-78.074219h207.171875v20.527344h-207.171875zm0 38h207.171875v29.417969l-84.691406 72.582031c-1.9375 1.652344-3.054688 4.078126-3.054688 6.625v81.59375l-31.664062 15.816407v-97.410157c-.003907-2.546874-1.121094-4.964843-3.054688-6.625l-84.707031-72.582031zm0 0"/><path d="m195.640625 82.496094h.074219c13.449218-.015625 24.359375-10.898438 24.40625-24.347656v-.085938c-.007813-13.445312-10.890625-24.355469-24.335938-24.402344h-.070312c-13.484375-.015625-24.4375 10.898438-24.453125 24.382813-.027344 13.484375 10.890625 24.433593 24.378906 24.453125zm-4.832031-29.351563c1.300781-1.292969 3.066406-2.015625 4.90625-2.011719h.007812c3.835938.007813 6.945313 3.117188 6.941406 6.953126-.003906 3.835937-3.113281 6.941406-6.949218 6.9375h-.027344c-2.8125-.011719-5.335938-1.710938-6.40625-4.308594-1.066406-2.605469-.464844-5.589844 1.527344-7.570313zm0 0"/><path d="m125.1875 82.269531h.085938c13.445312-.019531 24.351562-10.890625 24.414062-24.335937v-.007813c.019531-13.476562-10.867188-24.429687-24.335938-24.488281h-.085937c-13.484375-.019531-24.433594 10.894531-24.460937 24.378906-.019532 13.484375 10.898437 24.433594 24.382812 24.453125zm-4.816406-29.335937c1.296875-1.300782 3.054687-2.035156 4.894531-2.023438h.023437c3.835938.003906 6.9375 3.121094 6.929688 6.957032-.003906 3.835937-3.117188 6.9375-6.953125 6.933593h-.015625c-2.808594-.007812-5.339844-1.707031-6.40625-4.304687-1.066406-2.601563-.464844-5.582032 1.527344-7.5625zm0 0"/><path d="m54.75 82.046875h.074219c13.449219-.015625 24.359375-10.886719 24.425781-24.335937v-.074219c.007812-13.484375-10.910156-24.421875-24.394531-24.441407-13.480469-.019531-24.429688 10.890626-24.460938 24.375-.027343 13.476563 10.871094 24.4375 24.355469 24.476563zm-4.816406-29.34375c1.296875-1.292969 3.058594-2.023437 4.890625-2.015625h.023437c3.839844.003906 6.941406 3.117188 6.933594 6.953125-.003906 3.839844-3.121094 6.9375-6.957031 6.933594h-.023438c-1.84375-.003907-3.609375-.742188-4.90625-2.046875-1.296875-1.308594-2.015625-3.078125-2.007812-4.914063-.007813-1.847656.730469-3.613281 2.046875-4.910156zm0 0"/></g></svg>