<svg height="578pt" viewBox="-18 -62 578.66704 578" width="578pt" xmlns="http://www.w3.org/2000/svg"><path d="m94.949219 333.675781c-22.753907-.027343-41.199219-18.472656-41.226563-41.226562v-273.128907c0-1.203124.0625-2.398437.164063-3.582031-21.285157 1.878907-37.621094 19.699219-37.644531 41.0625v273.128907c.027343 22.753906 18.472656 41.199218 41.226562 41.226562h315.625l-37.480469-37.480469zm0 0" fill="#d4e1f4"/><path d="m442.273438 56.121094v194.769531l-.625-1.257813c-1.476563-2.988281-4.515626-4.871093-7.839844-4.871093-3.328125 0-6.367188 1.882812-7.84375 4.871093l-1.183594 2.394532v-135.503906h-407.289062v212.714843c.023437 22.761719 18.464843 41.207031 41.226562 41.230469h308.117188l7.59375 7.410156-1.722657 10.082032h-313.988281c-32.414062-.035157-58.6835938-26.304688-58.71875-58.722657v-273.117187c.0390625-32.417969 26.304688-58.6875 58.71875-58.722656h324.832031c32.417969.039062 58.675781 26.304687 58.722657 58.722656zm-17.492188 42.910156v-42.910156c-.03125-22.757813-18.472656-41.203125-41.230469-41.230469h-324.832031c-22.757812.023437-41.199219 18.46875-41.226562 41.230469v42.910156zm0 0" fill="#0635c9"/><g fill="#1ae5be"><path d="m366.835938 370.46875 7.59375 7.410156-1.722657 10.082032-9.296875 54.171874c-.558594 3.28125.785156 6.597657 3.480469 8.558594 2.695313 1.957032 6.265625 2.210938 9.214844.660156l57.695312-30.332031 57.707031 30.332031c2.949219 1.550782 6.519532 1.296876 9.214844-.660156 2.695313-1.960937 4.046875-5.277344 3.480469-8.558594l-11.035156-64.253906 46.691406-45.503906c2.386719-2.324219 3.238281-5.800781 2.214844-8.96875-1.03125-3.160156-3.769531-5.46875-7.0625-5.945312l-64.515625-9.371094-28.222656-57.199219-.625-1.257813c-1.476563-2.988281-4.515626-4.871093-7.839844-4.871093-3.328125 0-6.367188 1.882812-7.84375 4.871093l-1.183594 2.394532-27.671875 56.0625-64.507813 9.371094c-3.292968.476562-6.03125 2.785156-7.058593 5.945312-1.027344 3.167969-.167969 6.644531 2.210937 8.96875zm37.34375-45.738281c2.847656-.414063 5.3125-2.207031 6.585937-4.789063l23.035156-46.6875 23.054688 46.703125c1.273437 2.578125 3.738281 4.359375 6.582031 4.773438l51.519531 7.496093-37.277343 36.34375c-2.066407 2.003907-3.007813 4.894532-2.523438 7.730469l8.808594 51.324219-46.089844-24.222656c-2.542969-1.347656-5.59375-1.347656-8.136719 0l-46.089843 24.222656 8.800781-51.324219c.488281-2.832031-.453125-5.726562-2.515625-7.730469l-37.277344-36.34375zm0 0"/><path d="m195.996094 33.152344h-.070313c-13.5-.023438-24.464843 10.902344-24.492187 24.402344-.023438 13.5 10.902344 24.464843 24.402344 24.488281h.089843c13.496094.019531 24.457031-10.90625 24.476563-24.40625.019531-13.5-10.90625-24.460938-24.40625-24.484375zm4.824218 29.375c-1.300781 1.296875-3.0625 2.023437-4.894531 2.023437h-.027343c-3.839844-.007812-6.949219-3.125-6.9375-6.96875.003906-3.835937 3.121093-6.941406 6.964843-6.9375h.007813c3.839844.015625 6.945312 3.132813 6.933594 6.972657 0 1.84375-.734376 3.613281-2.046876 4.910156zm0 0"/><path d="m125.488281 32.929688h-.089843c-13.5-.019532-24.460938 10.90625-24.484376 24.40625-.019531 13.496093 10.90625 24.457031 24.40625 24.484374h.089844c13.496094.019532 24.457032-10.910156 24.484375-24.40625.019531-13.503906-10.910156-24.460937-24.40625-24.484374zm4.820313 29.371093c-1.296875 1.304688-3.070313 2.035157-4.910156 2.027344h-.015626c-2.808593-.011719-5.34375-1.707031-6.410156-4.308594-1.070312-2.601562-.464844-5.59375 1.527344-7.574219 1.296875-1.304687 3.058594-2.03125 4.898438-2.027343h.023437c2.8125.011719 5.34375 1.710937 6.414063 4.308593 1.070312 2.601563.464843 5.589844-1.527344 7.574219zm0 0"/><path d="m54.957031 32.703125h-.074219c-13.496093-.019531-24.460937 10.90625-24.480468 24.40625-.019532 13.5 10.910156 24.460937 24.410156 24.484375h.070312c13.5.019531 24.460938-10.90625 24.480469-24.40625.023438-13.503906-10.902343-24.464844-24.40625-24.484375zm4.828125 29.382813c-1.304687 1.300781-3.066406 2.023437-4.902344 2.015624h-.023437c-3.835937-.019531-6.929687-3.136718-6.921875-6.972656-.007812-1.84375.734375-3.617187 2.050781-4.910156 1.296875-1.296875 3.058594-2.023438 4.894531-2.023438h.023438c2.816406.007813 5.351562 1.710938 6.417969 4.320313 1.066406 2.605469.460937 5.597656-1.539063 7.570313zm0 0"/></g></svg>